{
  "source": "C:\\Users\\Peter\\Desktop\\stuff\\MIUN\\quantitative_research\\video_compression\\videos\\BVI-HD\\BVI-HD_CDVL_videos\\ORIG\\Hamster_1920x1080_60fps.mp4",
  "output": "C:\\Users\\Peter\\Desktop\\stuff\\MIUN\\quantitative_research\\video_compression\\compressed_videos\\BVI-HD\\av1\\2.5\\Hamster_1920x1080_60fps_av1.mkv",
  "codec": "av1",
  "ok": "Input #0, mov,mp4,m4a,3gp,3g2,mj2, from 'C:\\Users\\Peter\\Desktop\\stuff\\MIUN\\quantitative_research\\video_compression\\videos\\BVI-HD\\BVI-HD_CDVL_videos\\ORIG\\Hamster_1920x1080_60fps.mp4':\n  Metadata:\n    major_brand     : isom\n    minor_version   : 512\n    compatible_brands: isomiso2avc1mp41\n    encoder         : Lavf54.28.101\n  Duration: 00:00:05.00, start: 0.000000, bitrate: 208485 kb/s\n  Stream #0:0[0x1](und): Video: h264 (High 4:4:4 Predictive) (avc1 / 0x31637661), yuv420p(progressive), 1920x1080, 208481 kb/s, 60 fps, 60 tbr, 60 tbn (default)\n    Metadata:\n      handler_name    : VideoHandler\n      vendor_id       : [0][0][0][0]\n[out#0/matroska @ 00000241ed7a9780] Codec AVOption b:a (set bitrate (in bits/s)) has not been used for any stream. The most likely reason is either wrong type (e.g. a video option with no video streams) or that it is a private option of some decoder which was not actually used for any stream.\nStream mapping:\n  Stream #0:0 -> #0:0 (h264 (native) -> av1 (libsvtav1))\nPress [q] to stop, [?] for help\nSvt[info]: -------------------------------------------\nSvt[info]: SVT [version]:\tSVT-AV1 Encoder Lib v3.1.0-19-g6ecfe8ec\nSvt[info]: SVT [build]  :\tGCC 15.2.0\t 64 bit\nSvt[info]: LIB Build date: Aug 17 2025 11:37:13\nSvt[info]: -------------------------------------------\nSvt[info]: Level of Parallelism: 5\nSvt[info]: Number of PPCS 93\nSvt[info]: [asm level on system : up to avx2]\nSvt[info]: [asm level selected : up to avx2]\nSvt[info]: -------------------------------------------\nSvt[info]: SVT [config]: main profile\ttier (auto)\tlevel (auto)\nSvt[info]: SVT [config]: width / height / fps numerator / fps denominator \t\t: 1920 / 1080 / 60 / 1\nSvt[info]: SVT [config]: bit-depth / color format \t\t\t\t\t: 8 / YUV420\nSvt[info]: SVT [config]: preset / tune / pred struct \t\t\t\t\t: 4 / PSNR / random access\nSvt[info]: SVT [config]: gop size / mini-gop size / key-frame type \t\t\t: 321 / 16 / key frame\nSvt[info]: SVT [config]: BRC mode / target bitrate (kbps)\t\t\t\t: VBR / 2500 \nSvt[info]: SVT [config]: AQ mode / Variance Boost \t\t\t\t\t: 2 / 0\nSvt[info]: SVT [config]: sharpness / luminance-based QP bias \t\t\t\t: 0 / 0\nSvt[info]: SVT [config]: QP scale compress strength \t\t\t\t\t: 0\nSvt[info]: -------------------------------------------\nOutput #0, matroska, to 'C:\\Users\\Peter\\Desktop\\stuff\\MIUN\\quantitative_research\\video_compression\\compressed_videos\\BVI-HD\\av1\\2.5\\Hamster_1920x1080_60fps_av1.mkv':\n  Metadata:\n    major_brand     : isom\n    minor_version   : 512\n    compatible_brands: isomiso2avc1mp41\n    encoder         : Lavf62.3.100\n  Stream #0:0(und): Video: av1 (AV01 / 0x31305641), yuv420p(tv, progressive), 1920x1080, q=2-31, 2500 kb/s, 60 fps, 1k tbn (default)\n    Metadata:\n      encoder         : Lavc62.11.100 libsvtav1\n      handler_name    : VideoHandler\n      vendor_id       : [0][0][0][0]\n    Side data:\n      cpb: bitrate max/min/avg: 0/0/2500000 buffer size: 2500000 vbv_delay: N/A\nframe=    0 fps=0.0 q=0.0 size=       0KiB time=N/A bitrate=N/A speed=N/A elapsed=0:00:01.21    \nframe=    0 fps=0.0 q=0.0 size=       0KiB time=N/A bitrate=N/A speed=N/A elapsed=0:00:02.09    \nframe=    0 fps=0.0 q=0.0 size=       0KiB time=N/A bitrate=N/A speed=N/A elapsed=0:00:04.32    \nframe=    0 fps=0.0 q=0.0 size=       0KiB time=N/A bitrate=N/A speed=N/A elapsed=0:00:04.96    \nframe=    0 fps=0.0 q=0.0 size=       0KiB time=N/A bitrate=N/A speed=N/A elapsed=0:00:05.59    \nframe=    0 fps=0.0 q=0.0 size=       0KiB time=N/A bitrate=N/A speed=N/A elapsed=0:00:06.20    \nframe=    0 fps=0.0 q=0.0 size=       0KiB time=N/A bitrate=N/A speed=N/A elapsed=0:00:06.99    \nframe=    0 fps=0.0 q=0.0 size=       0KiB time=N/A bitrate=N/A speed=N/A elapsed=0:00:07.74    \nframe=    0 fps=0.0 q=0.0 size=       0KiB time=N/A bitrate=N/A speed=N/A elapsed=0:00:08.48    \nframe=    0 fps=0.0 q=0.0 size=       0KiB time=N/A bitrate=N/A speed=N/A elapsed=0:00:09.18    \nframe=    1 fps=0.1 q=10.0 size=       1KiB time=00:00:00.00 bitrate=N/A speed=   0x elapsed=0:00:09.77    \nframe=    1 fps=0.1 q=10.0 size=       1KiB time=00:00:00.00 bitrate=N/A speed=   0x elapsed=0:00:10.31    \nframe=    1 fps=0.1 q=10.0 size=       1KiB time=00:00:00.00 bitrate=N/A speed=   0x elapsed=0:00:10.92    \nframe=    4 fps=0.3 q=41.0 size=       1KiB time=00:00:00.05 bitrate= 113.9kbits/s speed=0.00436x elapsed=0:00:11.46    \nframe=    7 fps=0.6 q=36.0 size=       1KiB time=00:00:00.08 bitrate=  68.4kbits/s speed=0.00688x elapsed=0:00:12.11    \nframe=    8 fps=0.6 q=41.0 size=       1KiB time=00:00:00.11 bitrate=  48.8kbits/s speed=0.0092x elapsed=0:00:12.68    \nframe=    9 fps=0.7 q=33.0 size=       1KiB time=00:00:00.13 bitrate=  42.7kbits/s speed=0.00992x elapsed=0:00:13.44    \nframe=   12 fps=0.9 q=41.0 size=       1KiB time=00:00:00.15 bitrate=  38.0kbits/s speed=0.0107x elapsed=0:00:14.05    \nframe=   13 fps=0.9 q=34.0 size=       1KiB time=00:00:00.20 bitrate=  28.5kbits/s speed=0.0137x elapsed=0:00:14.64    \nframe=   16 fps=1.1 q=41.0 size=       1KiB time=00:00:00.25 bitrate=  22.8kbits/s speed=0.0165x elapsed=0:00:15.18    \nframe=   18 fps=1.1 q=36.0 size=       1KiB time=00:00:00.28 bitrate=  20.1kbits/s speed=0.018x elapsed=0:00:15.72    \nframe=   20 fps=1.2 q=36.0 size=       1KiB time=00:00:00.30 bitrate=  19.0kbits/s speed=0.0184x elapsed=0:00:16.26    \nframe=   22 fps=1.3 q=36.0 size=       1KiB time=00:00:00.33 bitrate=  17.1kbits/s speed=0.0197x elapsed=0:00:16.89    \nframe=   23 fps=1.3 q=37.0 size=       1KiB time=00:00:00.36 bitrate=  15.5kbits/s speed=0.021x elapsed=0:00:17.49    \nframe=   26 fps=1.4 q=36.0 size=       1KiB time=00:00:00.41 bitrate=  13.7kbits/s speed=0.0231x elapsed=0:00:18.06    \nframe=   28 fps=1.5 q=36.0 size=       1KiB time=00:00:00.45 bitrate=  12.7kbits/s speed=0.024x elapsed=0:00:18.71    \nframe=   32 fps=1.7 q=37.0 size=       1KiB time=00:00:00.51 bitrate=  11.0kbits/s speed=0.0268x elapsed=0:00:19.26    \nframe=   35 fps=1.8 q=38.0 size=       1KiB time=00:00:00.56 bitrate=  10.1kbits/s speed=0.0285x elapsed=0:00:19.89    \nframe=   37 fps=1.8 q=36.0 size=       1KiB time=00:00:00.60 bitrate=   9.5kbits/s speed=0.0293x elapsed=0:00:20.46    \nframe=   38 fps=1.8 q=38.0 size=       1KiB time=00:00:00.61 bitrate=   9.2kbits/s speed=0.0294x elapsed=0:00:20.98    \nframe=   39 fps=1.8 q=38.0 size=       1KiB time=00:00:00.63 bitrate=   9.0kbits/s speed=0.0294x elapsed=0:00:21.51    \nframe=   42 fps=1.9 q=36.0 size=       1KiB time=00:00:00.68 bitrate=   8.3kbits/s speed=0.031x elapsed=0:00:22.04    \nframe=   45 fps=2.0 q=35.0 size=       1KiB time=00:00:00.73 bitrate=   7.8kbits/s speed=0.0324x elapsed=0:00:22.63    \nframe=   48 fps=2.1 q=36.0 size=       1KiB time=00:00:00.76 bitrate=   7.4kbits/s speed=0.0331x elapsed=0:00:23.17    \nframe=   50 fps=2.1 q=38.0 size=       1KiB time=00:00:00.81 bitrate=   7.0kbits/s speed=0.0343x elapsed=0:00:23.83    \nframe=   52 fps=2.1 q=38.0 size=       1KiB time=00:00:00.85 bitrate=   6.7kbits/s speed=0.0348x elapsed=0:00:24.45    \nframe=   54 fps=2.2 q=37.0 size=       1KiB time=00:00:00.88 bitrate=   6.4kbits/s speed=0.0352x elapsed=0:00:25.08    \nframe=   57 fps=2.2 q=34.0 size=       1KiB time=00:00:00.93 bitrate=   6.1kbits/s speed=0.0364x elapsed=0:00:25.66    \nframe=   60 fps=2.3 q=37.0 size=       1KiB time=00:00:00.96 bitrate=   5.9kbits/s speed=0.0367x elapsed=0:00:26.33    \nframe=   64 fps=2.4 q=35.0 size=       1KiB time=00:00:01.05 bitrate=   5.4kbits/s speed=0.0389x elapsed=0:00:26.99    \nframe=   66 fps=2.4 q=35.0 size=       1KiB time=00:00:01.08 bitrate=   5.3kbits/s speed=0.0393x elapsed=0:00:27.59    \nframe=   67 fps=2.4 q=39.0 size=       1KiB time=00:00:01.10 bitrate=   5.2kbits/s speed=0.0391x elapsed=0:00:28.16    \nframe=   69 fps=2.4 q=38.0 size=       1KiB time=00:00:01.13 bitrate=   5.0kbits/s speed=0.0394x elapsed=0:00:28.73    \nframe=   72 fps=2.5 q=38.0 size=       1KiB time=00:00:01.15 bitrate=   5.0kbits/s speed=0.0392x elapsed=0:00:29.31    \nframe=   74 fps=2.5 q=38.0 size=       1KiB time=00:00:01.21 bitrate=   4.7kbits/s speed=0.0406x elapsed=0:00:29.93    \nframe=   76 fps=2.5 q=38.0 size=       1KiB time=00:00:01.25 bitrate=   4.6kbits/s speed=0.0409x elapsed=0:00:30.54    \nframe=   79 fps=2.5 q=38.0 size=       1KiB time=00:00:01.30 bitrate=   4.4kbits/s speed=0.0418x elapsed=0:00:31.06    \nframe=   81 fps=2.6 q=22.0 size=       1KiB time=00:00:01.33 bitrate=   4.3kbits/s speed=0.0422x elapsed=0:00:31.59    \nframe=   83 fps=2.6 q=39.0 size=       1KiB time=00:00:01.36 bitrate=   4.2kbits/s speed=0.0425x elapsed=0:00:32.13    \nframe=   85 fps=2.6 q=37.0 size=       1KiB time=00:00:01.40 bitrate=   4.1kbits/s speed=0.0429x elapsed=0:00:32.66    \nframe=   87 fps=2.6 q=39.0 size=       1KiB time=00:00:01.41 bitrate=   4.0kbits/s speed=0.0426x elapsed=0:00:33.26    \nframe=   90 fps=2.6 q=42.0 size=       1KiB time=00:00:01.48 bitrate=   3.8kbits/s speed=0.0436x elapsed=0:00:34.02    \nframe=   92 fps=2.6 q=41.0 size=       1KiB time=00:00:01.51 bitrate=   3.8kbits/s speed=0.0437x elapsed=0:00:34.72    \nframe=   97 fps=2.7 q=19.0 size=       1KiB time=00:00:01.58 bitrate=   3.6kbits/s speed=0.0448x elapsed=0:00:35.34    \nframe=   98 fps=2.7 q=41.0 size=       1KiB time=00:00:01.61 bitrate=   3.5kbits/s speed=0.0449x elapsed=0:00:35.98    \nframe=  101 fps=2.8 q=36.0 size=       1KiB time=00:00:01.66 bitrate=   3.4kbits/s speed=0.0457x elapsed=0:00:36.50    \nframe=  102 fps=2.8 q=42.0 size=       1KiB time=00:00:01.68 bitrate=   3.4kbits/s speed=0.0454x elapsed=0:00:37.07    \nframe=  105 fps=2.8 q=32.0 size=       1KiB time=00:00:01.73 bitrate=   3.3kbits/s speed=0.046x elapsed=0:00:37.69    \nframe=  107 fps=2.8 q=37.0 size=       1KiB time=00:00:01.76 bitrate=   3.2kbits/s speed=0.0462x elapsed=0:00:38.26    \nframe=  110 fps=2.8 q=41.0 size=       1KiB time=00:00:01.81 bitrate=   3.1kbits/s speed=0.0468x elapsed=0:00:38.85    \nframe=  113 fps=2.9 q=16.0 size=       1KiB time=00:00:01.86 bitrate=   3.1kbits/s speed=0.0474x elapsed=0:00:39.41    \nframe=  115 fps=2.9 q=37.0 size=       1KiB time=00:00:01.90 bitrate=   3.0kbits/s speed=0.0475x elapsed=0:00:39.98    \nframe=  118 fps=2.9 q=40.0 size=       1KiB time=00:00:01.95 bitrate=   2.9kbits/s speed=0.048x elapsed=0:00:40.62    \nframe=  122 fps=3.0 q=39.0 size=       1KiB time=00:00:02.01 bitrate=   2.8kbits/s speed=0.0489x elapsed=0:00:41.26    \nframe=  124 fps=3.0 q=39.0 size=       1KiB time=00:00:02.05 bitrate=   2.8kbits/s speed=0.0489x elapsed=0:00:41.90    \nframe=  128 fps=3.0 q=39.0 size=       1KiB time=00:00:02.11 bitrate=   2.7kbits/s speed=0.0498x elapsed=0:00:42.47    \nframe=  130 fps=3.0 q=39.0 size=       1KiB time=00:00:02.15 bitrate=   2.6kbits/s speed=0.0499x elapsed=0:00:43.10    \nframe=  132 fps=3.0 q=39.0 size=       1KiB time=00:00:02.18 bitrate=   2.6kbits/s speed=0.05x elapsed=0:00:43.66    \nframe=  134 fps=3.0 q=38.0 size=       1KiB time=00:00:02.21 bitrate=   2.6kbits/s speed=0.0501x elapsed=0:00:44.23    \nframe=  138 fps=3.1 q=39.0 size=       1KiB time=00:00:02.26 bitrate=   2.5kbits/s speed=0.0506x elapsed=0:00:44.80    \nframe=  139 fps=3.1 q=38.0 size=       1KiB time=00:00:02.30 bitrate=   2.5kbits/s speed=0.0506x elapsed=0:00:45.48    \nframe=  143 fps=3.1 q=38.0 size=       1KiB time=00:00:02.36 bitrate=   2.4kbits/s speed=0.0513x elapsed=0:00:46.09    \nframe=  146 fps=3.1 q=41.0 size=       1KiB time=00:00:02.41 bitrate=   2.4kbits/s speed=0.0517x elapsed=0:00:46.70    \nframe=  148 fps=3.1 q=41.0 size=       1KiB time=00:00:02.45 bitrate=   2.3kbits/s speed=0.0519x elapsed=0:00:47.23    \nframe=  150 fps=3.1 q=41.0 size=       1KiB time=00:00:02.48 bitrate=   2.3kbits/s speed=0.0519x elapsed=0:00:47.85    \nframe=  153 fps=3.2 q=34.0 size=       1KiB time=00:00:02.53 bitrate=   2.2kbits/s speed=0.0522x elapsed=0:00:48.50    \nframe=  156 fps=3.2 q=40.0 size=       1KiB time=00:00:02.56 bitrate=   2.2kbits/s speed=0.0523x elapsed=0:00:49.05    \nframe=  159 fps=3.2 q=40.0 size=       1KiB time=00:00:02.63 bitrate=   2.2kbits/s speed=0.0531x elapsed=0:00:49.62    \nframe=  162 fps=3.2 q=44.0 size=       1KiB time=00:00:02.68 bitrate=   2.1kbits/s speed=0.0535x elapsed=0:00:50.18    \nframe=  165 fps=3.3 q=40.0 size=       1KiB time=00:00:02.73 bitrate=   2.1kbits/s speed=0.0539x elapsed=0:00:50.75    \nframe=  166 fps=3.2 q=44.0 size=       1KiB time=00:00:02.75 bitrate=   2.1kbits/s speed=0.0535x elapsed=0:00:51.41    \nframe=  170 fps=3.3 q=44.0 size=       1KiB time=00:00:02.81 bitrate=   2.0kbits/s speed=0.0541x elapsed=0:00:52.10    \nframe=  171 fps=3.2 q=42.0 size=       1KiB time=00:00:02.83 bitrate=   2.0kbits/s speed=0.0538x elapsed=0:00:52.67    \nframe=  176 fps=3.3 q=40.0 size=       1KiB time=00:00:02.91 bitrate=   2.0kbits/s speed=0.0548x elapsed=0:00:53.22    \nframe=  179 fps=3.3 q=45.0 size=       1KiB time=00:00:02.96 bitrate=   1.9kbits/s speed=0.0552x elapsed=0:00:53.77    \nframe=  181 fps=3.3 q=43.0 size=       1KiB time=00:00:03.00 bitrate=   1.9kbits/s speed=0.0552x elapsed=0:00:54.32    \nframe=  185 fps=3.4 q=38.0 size=       1KiB time=00:00:03.06 bitrate=   1.9kbits/s speed=0.0559x elapsed=0:00:54.87    \nframe=  187 fps=3.4 q=44.0 size=       1KiB time=00:00:03.10 bitrate=   1.8kbits/s speed=0.0559x elapsed=0:00:55.45    \nframe=  190 fps=3.4 q=45.0 size=       1KiB time=00:00:03.13 bitrate=   1.8kbits/s speed=0.0559x elapsed=0:00:56.08    \nframe=  192 fps=3.4 q=45.0 size=       1KiB time=00:00:03.16 bitrate=   1.8kbits/s speed=0.0558x elapsed=0:00:56.72    \nframe=  194 fps=3.4 q=45.0 size=       1KiB time=00:00:03.21 bitrate=   1.8kbits/s speed=0.0561x elapsed=0:00:57.36    \nframe=  197 fps=3.4 q=40.0 size=       1KiB time=00:00:03.26 bitrate=   1.7kbits/s speed=0.0563x elapsed=0:00:57.98    \nframe=  200 fps=3.4 q=45.0 size=       1KiB time=00:00:03.31 bitrate=   1.7kbits/s speed=0.0566x elapsed=0:00:58.62    \nframe=  205 fps=3.5 q=40.0 size=       1KiB time=00:00:03.40 bitrate=   1.7kbits/s speed=0.0574x elapsed=0:00:59.21    \nframe=  209 fps=3.5 q=32.0 size=       1KiB time=00:00:03.43 bitrate=   1.7kbits/s speed=0.0574x elapsed=0:00:59.81    \nframe=  213 fps=3.5 q=39.0 size=       1KiB time=00:00:03.50 bitrate=   1.6kbits/s speed=0.0579x elapsed=0:01:00.41    \nframe=  215 fps=3.5 q=42.0 size=       1KiB time=00:00:03.56 bitrate=   1.6kbits/s speed=0.0585x elapsed=0:01:00.99    \nframe=  217 fps=3.5 q=40.0 size=       1KiB time=00:00:03.60 bitrate=   1.6kbits/s speed=0.0585x elapsed=0:01:01.56    \nframe=  221 fps=3.6 q=39.0 size=       1KiB time=00:00:03.66 bitrate=   1.6kbits/s speed=0.0589x elapsed=0:01:02.20    \nframe=  223 fps=3.6 q=41.0 size=       1KiB time=00:00:03.70 bitrate=   1.5kbits/s speed=0.059x elapsed=0:01:02.74    \nframe=  225 fps=3.6 q=34.0 size=       1KiB time=00:00:03.73 bitrate=   1.5kbits/s speed=0.059x elapsed=0:01:03.29    \nframe=  229 fps=3.6 q=35.0 size=       1KiB time=00:00:03.80 bitrate=   1.5kbits/s speed=0.0595x elapsed=0:01:03.82    \nframe=  231 fps=3.6 q=39.0 size=       1KiB time=00:00:03.83 bitrate=   1.5kbits/s speed=0.0595x elapsed=0:01:04.41    \nframe=  233 fps=3.6 q=39.0 size=       1KiB time=00:00:03.86 bitrate=   1.5kbits/s speed=0.0595x elapsed=0:01:04.96    \nframe=  233 fps=3.6 q=39.0 size=       1KiB time=00:00:03.86 bitrate=   1.5kbits/s speed=0.059x elapsed=0:01:05.50    \nframe=  237 fps=3.6 q=35.0 size=       1KiB time=00:00:03.93 bitrate=   1.4kbits/s speed=0.0595x elapsed=0:01:06.15    \nframe=  239 fps=3.6 q=38.0 size=       1KiB time=00:00:03.96 bitrate=   1.4kbits/s speed=0.0595x elapsed=0:01:06.71    \nframe=  243 fps=3.6 q=38.0 size=       1KiB time=00:00:04.03 bitrate=   1.4kbits/s speed=0.0598x elapsed=0:01:07.41    \nframe=  247 fps=3.6 q=38.0 size=       1KiB time=00:00:04.10 bitrate=   1.4kbits/s speed=0.0603x elapsed=0:01:08.01    \nframe=  249 fps=3.6 q=35.0 size=       1KiB time=00:00:04.13 bitrate=   1.4kbits/s speed=0.0603x elapsed=0:01:08.57    \nframe=  251 fps=3.6 q=38.0 size=       1KiB time=00:00:04.16 bitrate=   1.4kbits/s speed=0.0602x elapsed=0:01:09.20    \nframe=  253 fps=3.6 q=35.0 size=       1KiB time=00:00:04.20 bitrate=   1.4kbits/s speed=0.0601x elapsed=0:01:09.88    \nframe=  257 fps=3.6 q=26.0 size=       1KiB time=00:00:04.26 bitrate=   1.3kbits/s speed=0.0604x elapsed=0:01:10.61    \nframe=  261 fps=3.7 q=36.0 size=       1KiB time=00:00:04.33 bitrate=   1.3kbits/s speed=0.0609x elapsed=0:01:11.20    \nframe=  263 fps=3.7 q=39.0 size=       1KiB time=00:00:04.36 bitrate=   1.3kbits/s speed=0.0608x elapsed=0:01:11.78    \nframe=  265 fps=3.7 q=35.0 size=       1KiB time=00:00:04.40 bitrate=   1.3kbits/s speed=0.0608x elapsed=0:01:12.36    \nframe=  267 fps=3.7 q=41.0 size=       1KiB time=00:00:04.43 bitrate=   1.3kbits/s speed=0.0608x elapsed=0:01:12.92    \nframe=  271 fps=3.7 q=42.0 size=       1KiB time=00:00:04.46 bitrate=   1.3kbits/s speed=0.0608x elapsed=0:01:13.52    \nframe=  277 fps=3.7 q=42.0 size=       1KiB time=00:00:04.56 bitrate=   1.2kbits/s speed=0.0616x elapsed=0:01:14.12    \nframe=  279 fps=3.7 q=42.0 size=       1KiB time=00:00:04.63 bitrate=   1.2kbits/s speed=0.062x elapsed=0:01:14.67    \nframe=  281 fps=3.7 q=39.0 size=       1KiB time=00:00:04.66 bitrate=   1.2kbits/s speed=0.0621x elapsed=0:01:15.19    \nframe=  285 fps=3.8 q=42.0 size=       1KiB time=00:00:04.70 bitrate=   1.2kbits/s speed=0.062x elapsed=0:01:15.76    \nframe=  291 fps=3.8 q=42.0 size=       1KiB time=00:00:04.76 bitrate=   1.2kbits/s speed=0.0624x elapsed=0:01:16.39    \n[out#0/matroska @ 00000241ed7a9780] video:1638KiB audio:0KiB subtitle:0KiB other streams:0KiB global headers:0KiB muxing overhead: 0.127281%\nframe=  300 fps=3.9 q=42.0 Lsize=    1640KiB time=00:00:04.98 bitrate=2696.2kbits/s speed=0.0649x elapsed=0:01:16.74    \n",
  "seconds": 77.559978723526,
  "probe_out": {}
}